<svg width="74" height="74" viewBox="0 0 74 74" fill="none" xmlns="http://www.w3.org/2000/svg">
  <path d="M28.1 25.138s.925-3.643 1.404-5.41c.4-1.477 1.763-3.6 4.827-3.923a44.322 44.322 0 0 0-1.16 17.278 43.743 43.743 0 0 0 2.52 9.909c-2.743-.586-7.174 2.585-8.633 2.247-3.257-.755-4.974-4.738-5.113-5.73-.33-2.361-.14-3.653 3.279-9.357 0 0 2.31-2.848 2.875-5.014Z" fill="#350313"/>
  <path d="M28.1 25.138s.925-3.643 1.404-5.41c.4-1.477 1.763-3.6 4.827-3.923 0 0 3.579-3.798 8.76.67 5.182 4.47 2.492 7.986 2.829 11.172.336 3.185 2.659 15.662.497 19.924l-12.892 1.192s-11.625-5.729-11.677-9.91c-.025-2.003-.043-2.997 3.376-8.701 0 0 2.31-2.848 2.875-5.014Z" fill="#38101B"/>
  <path d="M63.667 66.127H10.702c2.049-8.705 3.713-13.515 3.713-13.515.707-4.242 3.978-5.614 3.978-5.614l3.717-1.381 2.073-.645 1.294-.402.753-.235 2.653-.825c.442-.137.857-.35 1.226-.63a4.033 4.033 0 0 0 1.51-2.303h.002a4.09 4.09 0 0 0 .046-.233l.011-.07a.606.606 0 0 0 .01-.071 5.386 5.386 0 0 0 .038-.42 3.27 3.27 0 0 0 .003-.14v-5.42H41.86v5.42c0 1.05.408 2.058 1.139 2.811a3.652 3.652 0 0 0 .452.407c.377.288.801.508 1.254.649l2.51.78.005.001 2.827.88 2.07.645 1.29.402 2.51.78c1.156.535 2.039 1.434 2.692 2.356.697.996 1.23 2.095 1.583 3.258h.016s1.488 4.81 3.458 13.515Z" fill="#ED9A72"/>
  <path d="M35.572 39.988c3.614-.63 6.288-4.816 6.288-4.816s-3.583-.295-5.824-.948h-4.307v5.419c0 .313-.037.624-.11.928v.006s.34.04 3.953-.59Zm1.394 12.178c.054.519.085 1.036.11 1.552l.067 1.545c.005.257.018.514.028.771l.032.77c.025.515.051 1.027.093 1.548a7.356 7.356 0 0 1-.367-1.52 14.442 14.442 0 0 1-.139-1.556 18 18 0 0 1 .012-1.559c.022-.52.077-1.038.164-1.551Z" fill="#B86A55"/>
  <path d="M54.481 66.127H19.617l1.201-9.017.078-.695v-.003l1.21-10.75.004-.045 2.073-.645a13.501 13.501 0 0 0 6.375 8.376A13.228 13.228 0 0 0 36.96 55.1c6.048.082 11.48-4.007 13.09-9.928l2.069.644 1.27 11.294h.002l1.091 9.017Z" fill="#E8E9EA"/>
  <path d="M31.004 42.208s5.309 7.537 12.227 0" stroke="#DB3A3A" stroke-width="3.253" stroke-miterlimit="10" stroke-linecap="round" stroke-dasharray="0.66 5.29"/>
  <path d="M44.937 26.608a1.37 1.37 0 0 0-.577-.11c.329-4.766-1.7-8.831-5.026-9.55-3.335-.72-6.872 2.163-8.533 6.661a1.396 1.396 0 0 0-.688-.202c-1.074-.018-1.966 1.26-1.992 2.856-.026 1.54.765 2.807 1.786 2.91.195 3.834 2.103 6.918 4.446 8.1.179.075.366.128.558.156.148.045.3.07.454.076 2.938-.144 5.839-2.106 7.54-5.516.945.192 2.088-.62 2.667-1.957.635-1.464.35-2.997-.635-3.424Z" fill="#E9966E"/>
  <path d="M38.057 30.168a2.677 2.677 0 0 1-1.764.42c.018.008.037.013.055.019l-.113-.024a.69.69 0 0 0 .058.006 2.67 2.67 0 0 1-1.417-1.085l3.18.664Z" fill="#B86A55"/>
  <path d="M33.923 26.427c.62 0 .621-.962 0-.962-.62 0-.62.962 0 .962Zm6.234 1.226c.62 0 .62-.963 0-.963s-.62.963 0 .963Zm-3.901-3.567c-.36.022-.722.003-1.078-.055a7.394 7.394 0 0 1-.519-.098l-.25-.06a4.402 4.402 0 0 0-1.17-.109c-.08.003-.161.01-.244.016a6.982 6.982 0 0 1-.266.022 3.73 3.73 0 0 1-.548-.005c.146-.11.3-.21.46-.298.08-.044.157-.085.238-.125a2.39 2.39 0 0 1 1.697-.111 7.385 7.385 0 0 1 .744.285c.33.143.645.324.936.538Zm2.482.615a4.81 4.81 0 0 1 1.075-.103 7.39 7.39 0 0 1 .795.047 2.39 2.39 0 0 1 1.3.596c.071.064.138.133.2.206.058.07.11.14.165.212.11.146.209.3.296.46a3.727 3.727 0 0 1-.501-.22 6.872 6.872 0 0 1-.234-.13 4.4 4.4 0 0 0-1.327-.498l-.251-.05a7.384 7.384 0 0 1-.513-.125 4.81 4.81 0 0 1-1.005-.395Z" fill="#38101B"/>
  <path d="M45.135 29.558c.31-.875.275-1.685-.076-1.81-.351-.124-.887.485-1.197 1.36-.309.876-.275 1.686.076 1.81.352.125.887-.484 1.197-1.36Zm-14.957-3.405c.079-.925-.158-1.7-.529-1.733-.371-.031-.737.693-.816 1.618-.08.925.157 1.7.529 1.732.37.032.736-.692.816-1.617Z" fill="#B86A55"/>
  <path d="M30.801 23.61c-.052.472-.123.937-.2 1.4l-.237 1.387c-.084.46-.165.922-.243 1.383-.076.461-.152.922-.214 1.393a6.687 6.687 0 0 1-.035-1.422c.033-.473.092-.944.176-1.41.084-.465.185-.927.31-1.383.119-.459.267-.909.443-1.349Zm13.589 2.934c-.02.473-.071.945-.151 1.411a16.36 16.36 0 0 1-.29 1.388c-.115.46-.256.912-.42 1.357a6.64 6.64 0 0 1-.62 1.281c.138-.455.26-.905.38-1.358.12-.452.236-.905.35-1.36l.356-1.36c.121-.454.248-.907.396-1.359Z" fill="#B86A55"/>
  <path d="M45.229 30.312c.236-2.122-.978-3.736-1.592-4.405-.035-2.464-.2-4.689-.61-6.049a6.572 6.572 0 0 0-1.838-2.079c-1.11-.565-2.52-.811-3.904-.836-1.323.265-2.61 1.034-3.733 2.183.272-.138.559-.245.855-.319 3.31-.822 5.55 1.398 6.46 2.932 1.126 1.898 1.084 3.135.555 7.556a24.15 24.15 0 0 1-1.708 6.49c.865.533 2.427-2.265 3.19-3.796.756.154 1.638-.337 2.257-1.222a6.78 6.78 0 0 0 .068-.455Z" fill="#B86A55"/>
  <path d="M36.248 42.278s1.207-.306 2.669-.836c.285-.103.58-.215.876-.335 1.406-.67 4.049-2.524 4.41-7.102.01-.313.024-.635.04-.966 0 0 .778-3.185 1.566-5.455a6.444 6.444 0 0 0-1.375-2.326c-.047-3.314-.33-6.196-1.128-7.123-2.482-2.885-9.818-1.884-10.498-.376-.68 1.508-2.413 4.326-2.064 5.997 0 0 1.15-4.776 4.46-5.598 3.31-.822 5.55 1.398 6.46 2.932 1.126 1.898 1.084 3.136.554 7.556-.606 5.06-1.919 6.48-2.566 7.287-.647.806-3.404 6.345-3.404 6.345Z" fill="#38101B"/>
  <path d="M45.229 30.312c.236-2.122-.978-3.736-1.592-4.405-.035-2.464-.2-4.689-.61-6.049a6.57 6.57 0 0 0-1.838-2.079c-1.11-.565-2.52-.811-3.904-.836-1.118.224-2.212.81-3.202 1.68a4.145 4.145 0 0 1 1.12-.465c3.311-.822 5.55 1.398 6.46 2.932 1.127 1.898 1.085 3.136.556 7.556-.36 3.007-.885 4.988-1.386 6.27a11.312 11.312 0 0 0 2.072-2.927c.755.154 1.637-.337 2.256-1.222a6.78 6.78 0 0 0 .068-.455Z" fill="#350313"/>
  <path d="m43.307 21.138-.872 5.586s-.564 5.934-1.602 8.191c-1.04 2.258 2.78-.468 2.78-.468l2.12-4.847-2.426-8.462Z" fill="#38101B"/>
  <path d="m40.52 44.237 5.977 3.379c1.993-4.45-.246-16.833-.577-19.97a5.408 5.408 0 0 1-.024-.309c-.817 2.277-1.653 5.702-1.653 5.702-.051 7.13-5.326 8.403-5.326 8.403a5.63 5.63 0 0 0-.127.388 3.528 3.528 0 0 0 1.73 2.407Z" fill="#350313"/>
  <path d="M33.113 31.647s4.831.726 5.678 1.311c0 0-2.439.957-2.912.754-.473-.202-2.766-2.065-2.766-2.065Z" fill="#FDFFFF"/>
  <path d="M33.113 31.647s.904 2.313 2.657 2.522c1.752.21 3.021-1.21 3.021-1.21a6.422 6.422 0 0 1-5.678-1.312Z" fill="#D7645D"/>
  <path d="M33.113 31.647s2.094-.494 5.678 1.311c0 0-2.523-.538-5.678-1.311Z" fill="#A75844"/>
  <path d="M30.451 66.127H19.545c.432-3.353.932-7.06 1.351-9.712v-.003c.588-3.725 1.158-10.156 1.21-10.75l.004-.045a13.223 13.223 0 0 1 2.775-1.467c.249-.101.498-.192.743-.275a20.496 20.496 0 0 1 4.48-.994l.066 1.444c.032.7.072 1.62.117 2.67.082 1.872.18 4.159.267 6.353.122 3.008.224 5.845.243 7.213.017 1.291-.139 3.391-.35 5.566Z" fill="#F37041"/>
</svg>
