<svg xmlns="http://www.w3.org/2000/svg" width="42" height="41" viewBox="0 0 42 41" fill="none"><path fill-rule="evenodd" clip-rule="evenodd" d="M11.135 9.502H4.87a.527.527 0 0 0-.53.523v20.723l-4.258 6.85a.502.502 0 0 0-.082.274v2.605c0 .288.237.523.53.523h40.94c.292 0 .53-.235.53-.523v-2.61a.514.514 0 0 0-.094-.284l-4.631-6.847V10.025a.514.514 0 0 0-.155-.37.53.53 0 0 0-.376-.153h-5.739V.522a.527.527 0 0 0-.53-.522H11.666a.528.528 0 0 0-.53.522l-.002 8.98ZM1.061 38.401h39.877v1.553H1.062V38.4Zm39.418-1.045c-.008-.01-4.019-5.939-4.019-5.939H5.168l-3.691 5.939h39.002Zm-4.807-3.492H7.296a.536.536 0 0 0-.35.166.52.52 0 0 0 0 .713.536.536 0 0 0 .35.166h28.379c.134-.01.26-.07.35-.166a.52.52 0 0 0 0-.713.536.536 0 0 0-.35-.166h-.003ZM31.005 12.02h3.182c.294 0 .53.233.53.522v16.404a.527.527 0 0 1-.53.522H8.119a.537.537 0 0 1-.375-.153.52.52 0 0 1-.156-.37V12.543c0-.29.239-.522.531-.522h3.016v-1.473H5.401v19.825h30.812V10.547h-5.208v1.473Zm0 1.045v15.358h2.65V13.065h-2.65Zm-19.87 0H8.65v15.358h2.485V13.065ZM29.944 1.046v27.377H12.198V1.046h17.746Zm-3.017 23.64h-11.3a.535.535 0 0 0-.376.154.518.518 0 0 0 0 .739c.1.098.235.153.376.153h11.302c.14 0 .276-.055.375-.153a.518.518 0 0 0 0-.739.539.539 0 0 0-.377-.153Zm-5.775-3.734h-1.064v1.045h1.063l.001-1.045Zm2.122 0h-1.062v1.045h1.062v-1.045Zm-6.37 0h-1.062v1.045h1.061v-1.045Zm7.431 0v1.045h.53s.708-1.045 0-1.045h-.53Zm-5.307 0h-1.063v1.045h1.061l.002-1.045Zm-2.25-18.508a.53.53 0 0 0-.43.387L15.115 7.28l-.004.017a.456.456 0 0 0-.016.148l.165 11.114a.514.514 0 0 0 .249.437.534.534 0 0 0 .508.028.54.54 0 0 0 .227.05h10.694a.612.612 0 0 0 .136-.02l.023-.007a.555.555 0 0 0 .2-.12l.018-.018a.545.545 0 0 0 .118-.2l.006-.023a.508.508 0 0 0 .018-.134v-.011L27.209 7.42v-.029a.364.364 0 0 0-.004-.04L26.63 2.9a.526.526 0 0 0-.405-.45h-.003a.612.612 0 0 0-.126-.013h-9.223a.504.504 0 0 0-.093.007Zm1.533 5.504h-2.148l.15 10.08h10.07l-.223-10.08h-2.167v1.995a.518.518 0 0 1-.156.37.535.535 0 0 1-.375.152h-4.62a.535.535 0 0 1-.375-.153.518.518 0 0 1-.156-.37V7.949Zm4.698 3.916-1.972 3.188-1.834-1.675a.536.536 0 0 0-.748.03.518.518 0 0 0 .026.736l2.31 2.111a.535.535 0 0 0 .652.054.526.526 0 0 0 .162-.165l2.31-3.736a.516.516 0 0 0-.178-.717.535.535 0 0 0-.728.174Zm-.078-3.916h-3.558V9.42h3.558V7.948Zm-5.664-4.466-.947 3.42h9.756l-.443-3.42h-8.366Z" fill="#686868"/></svg>