<svg width="74" height="74" viewBox="0 0 74 74" fill="none" xmlns="http://www.w3.org/2000/svg"><path d="M64.655 73.553H9.413l-.07.347-.001.008-.038-.002.071-.353a304.2 304.2 0 0 1 2.706-12.209c.305-1.247.586-2.364.844-3.351.883-3.395 1.44-5.2 1.44-5.2.689-4.131 3.874-5.465 3.874-5.465l.2-.062 10.72-3.338a3.91 3.91 0 0 0 1.438-.81 3.943 3.943 0 0 0 1.227-2.046v-.004a2.47 2.47 0 0 0 .031-.149c.01-.039.016-.08.022-.12.01-.059.019-.117.026-.178l.013-.137c.004-.062.009-.124.01-.186l.003-.135v-5.278h9.867v5.278a3.947 3.947 0 0 0 2.772 3.765l10.92 3.4c3.068 1.42 4.162 5.466 4.162 5.466h.016s2.329 7.526 4.99 20.759Z" fill="#F8B997"/><path d="M35.673 40.5c3.519-.614 6.124-4.691 6.124-4.691s-3.49-.288-5.673-.923H31.93v5.277c0 .305-.036.608-.107.905v.005s.33.04 3.85-.574Z" fill="#DD9176"/><path d="M46.902 25.597a1.533 1.533 0 0 0-.644-.125c.372-5.325-1.89-9.87-5.607-10.677-3.727-.809-7.682 2.41-9.544 7.435a1.561 1.561 0 0 0-.769-.227c-1.2-.021-2.198 1.407-2.23 3.19-.03 1.72.853 3.138 1.994 3.254.214 4.285 1.01 7.716 3.714 8.85.727.305 1.497.005 2.1.136.596.13 1.205.798 1.744.727 3.258-.432 5.061-2.742 6.966-6.552 1.055.216 2.335-.691 2.983-2.184.711-1.635.394-3.349-.707-3.827Z" fill="#F8B997"/><path d="M34.594 25.383c.693 0 .694-1.076 0-1.076-.692 0-.693 1.076 0 1.076Zm7.152 1.552c.692 0 .694-1.076 0-1.076-.693 0-.694 1.076 0 1.076Zm-1.364-3.094c.394-.087.797-.13 1.2-.127a8.255 8.255 0 0 1 .89.044 2.67 2.67 0 0 1 1.46.652c.08.07.154.147.224.228a5.202 5.202 0 0 1 .523.747 4.161 4.161 0 0 1-.562-.242 7.803 7.803 0 0 1-.263-.143c-.081-.043-.161-.086-.243-.125a4.927 4.927 0 0 0-1.245-.417l-.282-.052a8.255 8.255 0 0 1-.574-.134 5.38 5.38 0 0 1-1.128-.43Z" fill="#38101B"/><path d="M47.12 28.894c.347-.978.31-1.883-.082-2.022-.393-.14-.992.54-1.339 1.518s-.31 1.884.083 2.023c.393.14.992-.54 1.339-1.519Zm-16.712-3.822c.09-1.034-.174-1.9-.59-1.937-.414-.036-.823.773-.913 1.807-.09 1.034.174 1.9.589 1.937.415.036.824-.773.914-1.807Z" fill="#DD9176"/><path d="M31.107 22.23a28.976 28.976 0 0 1-.225 1.566l-.267 1.549c-.05.257-.092.515-.138.772l-.135.773c-.085.516-.17 1.03-.24 1.557a7.474 7.474 0 0 1-.038-1.59c.038-.528.104-1.054.198-1.575.096-.52.208-1.036.348-1.546.134-.512.3-1.015.497-1.506Zm15.185 3.295a12.607 12.607 0 0 1-.171 1.577 18.29 18.29 0 0 1-.325 1.55c-.13.514-.288 1.02-.472 1.516-.18.5-.412.98-.693 1.432.154-.508.29-1.012.426-1.517l.197-.76c.066-.252.134-.505.195-.76l.399-1.52c.136-.507.279-1.014.444-1.518Z" fill="#DD9176"/><path d="M40.852 26.203a.959.959 0 0 1 .416-.415.898.898 0 0 1 .626-.084.95.95 0 0 1 .523.346c.058.081.109.167.15.257.033.093.057.187.073.284a2.123 2.123 0 0 1-.216-.182c-.073-.053-.137-.111-.205-.158a1.205 1.205 0 0 0-.407-.198 1.028 1.028 0 0 0-.448-.001 3.501 3.501 0 0 0-.512.15ZM33.7 24.651a.959.959 0 0 1 .416-.415.898.898 0 0 1 .626-.084.95.95 0 0 1 .524.347c.058.08.108.166.15.257.032.092.056.187.072.283a2.123 2.123 0 0 1-.216-.181c-.072-.053-.136-.112-.204-.159a1.204 1.204 0 0 0-.407-.198 1.03 1.03 0 0 0-.448-.001 3.514 3.514 0 0 0-.513.151Z" fill="#38101B"/><path d="M49.408 23.043a1.738 1.738 0 0 0-.333-1.446l.002-.062a1.743 1.743 0 0 0-.247-3.21 1.738 1.738 0 0 0-1.51-2.664l.014-.047a1.742 1.742 0 0 0-2.812-1.712 1.739 1.739 0 0 0-2.724-.537 12.168 12.168 0 0 0-.317-.076 1.74 1.74 0 0 0-3.276-.505 1.743 1.743 0 0 0-2.98.972 1.74 1.74 0 0 0-2.73 1.63 1.736 1.736 0 0 0-1.85 1.957 1.736 1.736 0 0 0-.472 2.305l-.014.109a1.74 1.74 0 0 0-.053 2.845c.155 1.53.58 2.293.58 2.293s.155-.83.473-1.956a1.741 1.741 0 0 0 1.426-2.707 1.732 1.732 0 0 0 .809-1.699 1.76 1.76 0 0 0 .302-.276 1.736 1.736 0 0 0 2.484.116 1.733 1.733 0 0 0 2.03.057 1.736 1.736 0 0 0 2.246 1.4 1.74 1.74 0 0 0 2.953 1.507 1.742 1.742 0 0 0 1.352 1.445 1.743 1.743 0 0 0 .831 1.878 1.735 1.735 0 0 0 .022 1.858c-.046 1.055-.1 1.894-.1 1.894s.461-.481 1.036-1.18a1.742 1.742 0 0 0 1.868-2.77 7.82 7.82 0 0 0 .114-.256 1.737 1.737 0 0 0 .876-1.163Z" fill="#350313"/><path d="M33.854 30.396s5.156.761 6.06 1.384c0 0-2.599 1.027-3.104.812-.505-.215-2.956-2.196-2.956-2.196Z" fill="#FDFFFF"/><path d="M33.854 30.396s.971 2.464 2.84 2.684c1.87.22 3.22-1.3 3.22-1.3a6.85 6.85 0 0 1-6.06-1.384Z" fill="#D7645D"/><path d="M33.854 30.396s2.233-.532 6.06 1.384c0 0-2.693-.568-6.06-1.384Z" fill="#A75844"/><path d="M37.49 29.422c-.01.155-.052.307-.123.445-.068.14-.155.271-.258.388a2.17 2.17 0 0 1-.776.547A2.57 2.57 0 0 1 35.4 31c-.08.003-.158.002-.237 0-.053.004-.099.003-.148.004-.096-.006-.198.008-.297.005-.403.02-.832.05-1.294.087-.232.014-.47.035-.719.052-.065.002-.125.009-.189.014-.066.002-.127.01-.193.015-.068.006-.128.014-.199.023a1.12 1.12 0 0 0-.1.018.488.488 0 0 0-.101.039.329.329 0 0 1 .001-.12c.008-.039.018-.08.03-.12.028-.074.061-.145.1-.213.075-.132.163-.256.264-.369a3 3 0 0 1 .668-.562 3.418 3.418 0 0 1 1.671-.514c.155-.004.309.002.462.02.077.01.157.018.23.03.048.01.095.018.143.03.19.043.383.075.577.097.476.056.96.018 1.421-.113Z" fill="#350313"/><path d="M37.333 29.388c.367.31.79.545 1.247.692.186.06.374.11.565.15.048.01.095.022.142.033.072.02.148.044.223.067.146.048.29.107.428.174.53.267.98.667 1.309 1.16.162.244.288.51.374.789.045.145.074.294.088.445.007.078.008.156.002.234a1.46 1.46 0 0 1-.022.122.333.333 0 0 1-.049.11.495.495 0 0 0-.076-.077 1.141 1.141 0 0 0-.084-.058 3.504 3.504 0 0 0-.17-.103c-.06-.032-.11-.064-.17-.094-.056-.03-.108-.063-.167-.09-.22-.12-.426-.238-.633-.346-.404-.225-.783-.43-1.141-.616-.091-.038-.179-.093-.268-.127-.045-.022-.087-.04-.134-.065-.072-.032-.144-.063-.215-.098a2.575 2.575 0 0 1-.768-.566 2.172 2.172 0 0 1-.478-.82 1.696 1.696 0 0 1-.075-.46c-.007-.155.018-.31.072-.456Z" fill="#350313"/><path d="M39.21 29.568c-.583.38-1.28.546-1.972.468.02.008.04.015.061.02l-.126-.027a.812.812 0 0 0 .065.007 2.983 2.983 0 0 1-1.583-1.213l3.554.745Z" fill="#DD9176"/><path d="M64.696 73.553H9.413c.98-4.872 1.915-8.971 2.704-12.206.303-1.244.587-2.36.841-3.343.884-3.405 1.445-5.216 1.445-5.216.69-4.132 3.875-5.468 3.875-5.468l.16-.055 12.14-4.152.018.004 6.337 1.674 6.23-1.642.136-.036 12.226 4.207c3.07 1.421 4.163 5.468 4.163 5.468h.016s2.33 7.527 4.992 20.765Z" fill="#577FFF"/><path d="M47.768 73.553H27.701l2.874-30.417.003-.023.018.004 6.337 1.674 6.23-1.642.136-.036.025.166 4.444 30.274Z" fill="#E8E9EA"/><path d="m17.145 73.535.739-7.496-.022 7.531-.717-.035Zm38.497-7.496.741 7.496-.721.035-.02-7.531Z" fill="#2E72A0"/><path d="M46.947 25.67a1.53 1.53 0 0 0-.644-.124c.372-5.326-1.891-9.872-5.607-10.678-3.727-.809-7.682 2.41-9.544 7.435a1.561 1.561 0 0 0-.77-.227c-1.2-.02-2.198 1.407-2.229 3.19-.03 1.72.853 3.138 1.993 3.254.215 4.285 1.01 7.716 3.715 8.85.727.306 1.496.006 2.099.136.596.13 1.206.799 1.744.727 3.258-.432 5.062-2.742 6.966-6.551 1.056.216 2.335-.692 2.984-2.185.71-1.635.394-3.349-.707-3.827Z" fill="#F8B997"/><path d="M34.639 25.456c.692 0 .693-1.076 0-1.076s-.694 1.076 0 1.076Zm7.151 1.552c.693 0 .694-1.076 0-1.076-.692 0-.693 1.076 0 1.076Zm-4.6-3.844a5.379 5.379 0 0 1-1.184-.235 8.266 8.266 0 0 1-.557-.193l-.267-.105a4.927 4.927 0 0 0-1.549-.332 7.716 7.716 0 0 1-.297-.02 4.155 4.155 0 0 1-.606-.093c.18-.1.366-.184.557-.256.095-.035.187-.069.284-.099.102-.031.206-.056.311-.073a2.672 2.672 0 0 1 1.583.224 8.266 8.266 0 0 1 .776.436c.343.212.662.462.949.746Zm3.237.751a5.32 5.32 0 0 1 1.2-.127 8.193 8.193 0 0 1 .889.043 2.671 2.671 0 0 1 1.46.652c.08.071.155.147.224.228.066.077.127.155.188.235.124.162.236.333.336.512a4.17 4.17 0 0 1-.563-.242 7.819 7.819 0 0 1-.262-.142 4.93 4.93 0 0 0-1.488-.543l-.282-.052a8.186 8.186 0 0 1-.575-.134c-.39-.1-.769-.245-1.127-.43Z" fill="#38101B"/><path d="M47.165 28.967c.347-.978.31-1.883-.083-2.022-.392-.14-.992.54-1.338 1.518-.347.978-.31 1.884.083 2.023.392.14.991-.54 1.338-1.519Zm-16.713-3.822c.09-1.033-.174-1.9-.589-1.936-.415-.036-.824.772-.913 1.806-.09 1.034.174 1.9.588 1.937.415.036.825-.773.914-1.807Z" fill="#DD9176"/><path d="M31.152 22.303a29.062 29.062 0 0 1-.225 1.566l-.267 1.55c-.05.256-.093.514-.138.772l-.135.772c-.085.516-.17 1.031-.241 1.557a7.474 7.474 0 0 1-.037-1.59 14.68 14.68 0 0 1 .198-1.575c.095-.52.208-1.036.347-1.545.134-.512.3-1.016.498-1.507Zm15.185 3.295a12.607 12.607 0 0 1-.172 1.577 18.25 18.25 0 0 1-.324 1.55 14.7 14.7 0 0 1-.473 1.516c-.18.5-.411.98-.693 1.432.154-.508.29-1.012.427-1.517l.197-.76c.065-.253.134-.505.195-.76l.399-1.52a28.14 28.14 0 0 1 .444-1.518Z" fill="#DD9176"/><path d="M40.896 26.276a.959.959 0 0 1 .416-.415.898.898 0 0 1 .626-.084.95.95 0 0 1 .524.346c.058.081.108.167.15.257a1.7 1.7 0 0 1 .072.284 2.124 2.124 0 0 1-.216-.182c-.072-.053-.137-.111-.204-.158a1.203 1.203 0 0 0-.407-.198 1.029 1.029 0 0 0-.448-.001 3.504 3.504 0 0 0-.513.15Zm-7.151-1.552a.958.958 0 0 1 .416-.415.898.898 0 0 1 .626-.084.951.951 0 0 1 .524.347c.057.08.108.166.15.257.032.092.056.187.072.283a2.111 2.111 0 0 1-.216-.181c-.073-.053-.137-.112-.205-.159a1.204 1.204 0 0 0-.407-.198 1.03 1.03 0 0 0-.448-.001 3.5 3.5 0 0 0-.512.151Z" fill="#38101B"/><path d="M49.452 23.116a1.74 1.74 0 0 0-.333-1.446c.002-.021.002-.041.002-.062a1.742 1.742 0 0 0-.247-3.21 1.738 1.738 0 0 0-1.509-2.665c.004-.015.01-.03.013-.046a1.742 1.742 0 0 0-2.812-1.712 1.738 1.738 0 0 0-2.724-.537 12.168 12.168 0 0 0-.317-.076 1.74 1.74 0 0 0-3.276-.505 1.742 1.742 0 0 0-2.98.972 1.74 1.74 0 0 0-2.73 1.63 1.736 1.736 0 0 0-1.849 1.957 1.736 1.736 0 0 0-.472 2.305l-.015.109a1.74 1.74 0 0 0-.053 2.845c.156 1.53.581 2.293.581 2.293s.154-.83.472-1.956a1.74 1.74 0 0 0 1.427-2.707 1.732 1.732 0 0 0 .808-1.699c.111-.08.213-.173.303-.276a1.737 1.737 0 0 0 2.483.117 1.733 1.733 0 0 0 2.031.056 1.74 1.74 0 0 0 2.246 1.4 1.74 1.74 0 0 0 2.952 1.507 1.742 1.742 0 0 0 1.352 1.445 1.743 1.743 0 0 0 .832 1.878 1.735 1.735 0 0 0 .021 1.858c-.046 1.055-.099 1.894-.099 1.894s.46-.481 1.036-1.18a1.741 1.741 0 0 0 1.868-2.77c.04-.087.078-.172.113-.256a1.737 1.737 0 0 0 .876-1.163Z" fill="#350313"/><path d="M33.899 30.469s5.155.761 6.06 1.384c0 0-2.6 1.027-3.104.812-.505-.215-2.956-2.196-2.956-2.196Z" fill="#FDFFFF"/><path d="M33.899 30.469s.97 2.464 2.84 2.684c1.87.22 3.22-1.3 3.22-1.3a6.85 6.85 0 0 1-6.06-1.384Z" fill="#D7645D"/><path d="M33.899 30.469s2.233-.532 6.06 1.384c0 0-2.693-.568-6.06-1.384Z" fill="#A75844"/><path d="M37.535 29.496a1.174 1.174 0 0 1-.123.445 1.7 1.7 0 0 1-.259.387 2.17 2.17 0 0 1-.776.548c-.296.123-.612.19-.933.197-.079.002-.157.001-.236 0-.053.003-.1.002-.149.003-.095-.005-.198.008-.296.005-.403.02-.833.05-1.294.088-.233.013-.47.034-.72.051-.064.002-.125.01-.189.014-.066.002-.127.01-.193.015-.068.006-.127.014-.198.023a1.01 1.01 0 0 0-.1.018.493.493 0 0 0-.102.039.333.333 0 0 1 .002-.12c.008-.039.018-.08.03-.12.027-.074.06-.145.1-.213.074-.132.162-.255.263-.369a3.02 3.02 0 0 1 .668-.562 3.419 3.419 0 0 1 1.672-.513 3.35 3.35 0 0 1 .462.019c.077.01.157.019.23.031.047.009.095.018.142.03.19.042.383.074.577.096.477.056.96.018 1.422-.112Z" fill="#350313"/><path d="M37.378 29.461c.366.31.79.545 1.247.692.185.06.374.11.565.15.048.01.095.022.141.033.072.02.149.044.223.067.147.048.29.107.428.174.53.267.98.667 1.309 1.16.163.244.289.51.375.789.045.145.074.294.087.445.007.078.008.156.002.234a1.462 1.462 0 0 1-.022.122.33.33 0 0 1-.048.11.49.49 0 0 0-.076-.077 1.12 1.12 0 0 0-.084-.058c-.061-.038-.112-.07-.171-.103-.059-.032-.11-.064-.17-.094-.056-.03-.108-.063-.166-.09-.22-.12-.427-.238-.633-.346-.405-.225-.783-.43-1.142-.616-.09-.038-.178-.093-.268-.127-.044-.021-.087-.04-.133-.065-.072-.032-.145-.063-.215-.098-.29-.14-.55-.331-.768-.566a2.17 2.17 0 0 1-.479-.82 1.7 1.7 0 0 1-.075-.46c-.007-.155.018-.31.073-.456Z" fill="#350313"/><path d="M39.254 29.642a2.99 2.99 0 0 1-1.972.467c.02.008.041.015.062.021l-.126-.027a.728.728 0 0 0 .064.006 2.983 2.983 0 0 1-1.583-1.213l3.555.746Z" fill="#DD9176"/></svg>