<svg xmlns="http://www.w3.org/2000/svg" viewBox="0 0 64 64" style="enable-background:new 0 0 464 464" xml:space="preserve" width="64" height="64">
  <path style="fill:#a0dce6" d="M20.414 45.241c-7.313 0-13.241-5.928-13.241-13.241s5.928-13.241 13.241-13.241c4.531 0 8.529 2.276 10.917 5.747a17.536 17.536 0 0 1 4.455-1.186c-2.689-4.742-7.512-8.115-13.165-8.822V7.992l2.073 2.073a1.103 1.103 0 0 0 1.56 0l1.56-1.56a1.103 1.103 0 0 0 0-1.56L21.193.324a1.103 1.103 0 0 0-1.561 0l-6.619 6.62a1.103 1.103 0 0 0 0 1.56l1.56 1.56a1.103 1.103 0 0 0 1.56 0l2.074-2.072v6.505C9.5 15.586 2.759 22.998 2.759 32c0 9.751 7.905 17.655 17.655 17.655.772 0 1.533-.05 2.28-.146a17.538 17.538 0 0 1-1.726-4.28c-.184.008-.368.012-.553.012zM38.069 32c0-1.52-.193-2.995-.554-4.401a13.192 13.192 0 0 0-4.324.915A13.256 13.256 0 0 1 33.655 32c0 5.59-3.464 10.371-8.363 12.313a13.18 13.18 0 0 0 1.86 4.009C33.56 45.674 38.069 39.364 38.069 32z"/>
  <path style="fill:#e86464" d="M58.14 57.778 60.918 55a1.103 1.103 0 0 0 0-1.56l-1.56-1.56a1.103 1.103 0 0 0-1.561 0l-2.778 2.778-3.015-3.015a17.568 17.568 0 0 0 3.72-10.815c0-9.751-7.905-17.655-17.655-17.655-.774 0-1.536.05-2.283.147a17.536 17.536 0 0 0-4.455 1.186c-6.408 2.648-10.917 8.957-10.917 16.322a17.686 17.686 0 0 0 .553 4.402 17.54 17.54 0 0 0 1.726 4.28c3.032 5.356 8.781 8.973 15.376 8.973a17.56 17.56 0 0 0 10.814-3.72l3.015 3.015-2.778 2.778a1.103 1.103 0 0 0 0 1.561l1.561 1.56a1.103 1.103 0 0 0 1.56 0l2.778-2.778 2.778 2.778a1.103 1.103 0 0 0 1.561 0l1.56-1.56a1.103 1.103 0 0 0 0-1.561l-2.778-2.778zm-20.071-3.709a13.227 13.227 0 0 1-10.917-5.747 13.18 13.18 0 0 1-1.86-4.009 13.255 13.255 0 0 1-.464-3.485c0-5.59 3.464-10.371 8.363-12.313a13.182 13.182 0 0 1 4.324-.915 13.45 13.45 0 0 1 .554-.012c7.313 0 13.241 5.928 13.241 13.241s-5.928 13.24-13.241 13.24z"/>
</svg>

