<svg width="336" height="307" viewBox="0 0 336 307" fill="none" xmlns="http://www.w3.org/2000/svg">
<g clip-path="url(#clip0_643_4859)">
<path opacity="0.18" d="M336.005 186.02C336.004 192.611 335.277 199.182 333.836 205.614C321.018 263.116 252.692 307 170.347 307C136.374 307 104.792 299.529 78.5118 286.721C60.3767 277.883 44.7609 266.503 32.6278 253.272C27.4689 248.373 22.9288 242.859 19.1089 236.855C-15.7343 182.741 -2.66874 86.1807 56.2808 86.985C63.3128 87.1251 70.3459 86.765 77.3268 85.9074C93.8906 83.7676 103.937 78.7558 110.022 73.3211C111.516 71.9926 112.878 70.5212 114.087 68.928C122.555 57.663 135.04 50.103 148.94 47.8237C271.898 28.1116 316.675 89.46 330.554 141.151C334.325 155.089 336.144 169.483 335.959 183.922C335.995 184.618 336.005 185.319 336.005 186.02Z" fill="#2C8181"/>
<path opacity="0.05" d="M88.5016 264.513L22.8956 242.341C22.8956 242.341 -1.24682 212.368 0.0978575 161.961L97.7289 201.958C97.7289 201.958 140.182 189.748 165.473 188.526C190.764 187.304 302.888 175.522 302.888 175.522C302.888 175.522 324.526 200.349 314.902 207.944C305.278 215.539 236.009 216.818 236.009 216.818L187.838 188.562L147.322 219.891L116.451 249.044L88.5016 264.513Z" fill="#000405"/>
<path d="M196.055 153.211L195.025 155.831C195.025 155.831 198.116 158.569 196.055 159.744C196.055 159.744 206.782 159.079 196.055 153.211Z" fill="#3F3D56"/>
<path d="M73.4576 238.036L72.2108 241.573L82.4479 246.363C82.4479 246.363 91.9482 247.559 94.8694 245.053C96.6416 243.491 97.9364 241.458 98.6047 239.191L73.4576 238.036Z" fill="#333333"/>
<path d="M100.264 204.851C100.264 204.851 112.309 204.639 115.833 209.017C119.357 213.394 106.693 226.357 106.693 226.357L77.4866 228.42L100.264 204.851Z" fill="#68E1FD"/>
<path d="M100.264 204.851C100.264 204.851 112.309 204.639 115.833 209.017C119.357 213.394 106.693 226.357 106.693 226.357L77.4866 228.42L100.264 204.851Z" fill="url(#paint0_linear_643_4859)"/>
<path d="M99.8309 223.645C99.8309 223.645 125.138 225.929 129.538 227.553C137.853 230.683 135.38 242.377 131.624 243.625C128.487 244.682 104.622 253.422 96.9922 256.222C96.3596 256.45 95.6635 256.428 95.0472 256.158C94.4309 255.889 93.9414 255.393 93.6794 254.773L91.0364 248.529C90.8911 248.187 90.8197 247.818 90.8267 247.447C90.8338 247.076 90.9191 246.71 91.0772 246.374C91.2353 246.038 91.4626 245.74 91.7441 245.498C92.0257 245.256 92.3551 245.076 92.7108 244.971L107.724 240.501C107.724 240.501 85.4362 242.749 80.9333 241.748C70.9641 239.562 61.134 226.795 66.3685 215.648C71.603 204.5 99.8309 223.645 99.8309 223.645Z" fill="#68E1FD"/>
<path d="M99.8309 223.645C99.8309 223.645 125.138 225.929 129.538 227.553C137.853 230.683 135.38 242.377 131.624 243.625C128.487 244.682 104.622 253.422 96.9922 256.222C96.3596 256.45 95.6635 256.428 95.0472 256.158C94.4309 255.889 93.9414 255.393 93.6794 254.773L91.0364 248.529C90.8911 248.187 90.8197 247.818 90.8267 247.447C90.8338 247.076 90.9191 246.71 91.0772 246.374C91.2353 246.038 91.4626 245.74 91.7441 245.498C92.0257 245.256 92.3551 245.076 92.7108 244.971L107.724 240.501C107.724 240.501 85.4362 242.749 80.9333 241.748C70.9641 239.562 61.134 226.795 66.3685 215.648C71.603 204.5 99.8309 223.645 99.8309 223.645Z" fill="url(#paint1_linear_643_4859)"/>
<path d="M165.942 160.621L164.772 165.199L170.769 170.515C170.769 170.515 169.054 170.515 167.678 173.197L167.132 179.059C167.132 179.059 171.161 187.784 182.279 180.158L200.311 196.111L240.306 182.014L241.161 176.559L165.942 160.621Z" fill="#3F3D56"/>
<path d="M274.371 164.998L254.474 157.176C253.247 156.488 251.871 156.107 250.464 156.066C249.057 156.024 247.662 156.324 246.396 156.939C245.275 157.469 244.319 158.296 243.634 159.33C242.948 160.365 242.558 161.567 242.506 162.807C241.821 170.335 245.87 204.985 245.87 204.985C247.364 205.563 248.92 205.963 250.507 206.176C251.899 206.454 253.335 206.423 254.714 206.085C256.093 205.748 257.381 205.111 258.488 204.222L258.874 178.157C258.874 178.157 281.301 192.022 289.302 190.867C298.256 189.578 312.661 182.225 302.929 165.174C293.197 148.122 274.371 164.998 274.371 164.998Z" fill="#68E1FD"/>
<path d="M274.371 164.998L254.474 157.176C253.247 156.488 251.871 156.107 250.464 156.066C249.058 156.024 247.662 156.324 246.396 156.939C245.275 157.469 244.319 158.296 243.634 159.33C242.948 160.365 242.558 161.567 242.506 162.807C241.821 170.335 245.87 204.985 245.87 204.985C247.364 205.563 248.92 205.963 250.507 206.176C251.899 206.454 253.335 206.423 254.714 206.085C256.093 205.748 257.381 205.111 258.488 204.222L258.874 178.157C258.874 178.157 281.301 192.022 289.302 190.867C298.256 189.578 312.661 182.225 302.929 165.174C293.197 148.122 274.371 164.998 274.371 164.998Z" fill="url(#paint2_linear_643_4859)"/>
<path d="M257.885 119.149C257.885 119.149 252.043 137.763 250.466 141.754C248.889 145.745 221.264 149.066 221.264 149.066L222.295 161.013L253.753 157.104L263.212 143.414L257.885 119.149Z" fill="#68E1FD"/>
<path opacity="0.61" d="M257.885 119.149C257.885 119.149 252.043 137.763 250.466 141.754C248.889 145.745 221.264 149.066 221.264 149.066L222.295 161.013L253.753 157.104L263.212 143.414L257.885 119.149Z" fill="url(#paint3_linear_643_4859)"/>
<path d="M273.619 112.972L280.023 116.53C291.919 121.846 296.257 133.68 302.914 165.256C302.914 165.256 297.288 177.848 276.576 169.381C276.576 169.381 262.522 148.828 260.203 141.125C257.885 133.422 252.048 120.165 262.779 115.097C273.511 110.028 273.619 112.972 273.619 112.972Z" fill="#68E1FD"/>
<path opacity="0.05" d="M287.349 140.084L295.15 169.541C295.15 169.541 287.19 174.398 276.551 169.366C265.912 164.333 269.678 159.326 266.247 153.211L276.669 147.539L287.349 140.084Z" fill="#000405"/>
<path d="M272.718 111.699C272.305 112.591 271.716 113.391 270.986 114.05C270.256 114.708 269.4 115.211 268.471 115.53C267.541 115.848 266.556 115.974 265.576 115.9C264.596 115.827 263.641 115.555 262.769 115.102C262.769 115.102 256.751 125.605 265.345 124.352C269.899 123.687 273.887 116.901 274.65 113.462L272.718 111.699Z" fill="#333333"/>
<path d="M273.104 103.273C273.104 103.392 272.831 108.574 272.62 112.307C272.465 115.196 271.227 117.919 269.152 119.933C267.95 121.183 266.505 122.174 264.907 122.846C264.522 122.99 264.104 123.024 263.7 122.945C263.296 122.866 262.923 122.676 262.62 122.398C262.316 122.118 262.094 121.759 261.98 121.362C261.865 120.965 261.862 120.544 261.97 120.145C262.177 119.366 262.383 118.469 262.548 117.53C262.888 115.581 263.063 113.472 262.511 111.982C262.496 111.926 262.477 111.871 262.455 111.817C262.146 111.049 262.455 110.209 263.181 109.363C264.181 108.177 265.932 106.976 267.684 105.96C269.439 104.963 271.248 104.066 273.104 103.273Z" fill="url(#paint4_linear_643_4859)"/>
<path d="M263.696 117.133C263.339 117.314 262.96 117.447 262.568 117.53C262.908 115.581 263.083 113.472 262.532 111.982L263.202 109.363L263.717 107.414L267.725 105.96L271.78 104.49C270.77 111.699 266.922 115.623 263.696 117.133Z" fill="url(#paint5_linear_643_4859)"/>
<path d="M262.671 82.7415C261.086 82.8336 259.538 83.2526 258.123 83.972C256.707 84.6914 255.456 85.6958 254.447 86.9221C253.438 88.1485 252.693 89.5703 252.258 91.0984C251.824 92.6265 251.711 94.2279 251.924 95.8021C252.285 100.482 253.486 105.058 255.469 109.311C259.224 115.726 268.704 110.446 270.203 107.806C271.703 105.166 277.37 93.2189 274.995 89.821C273.439 87.511 268.823 82.4992 262.671 82.7415Z" fill="url(#paint6_linear_643_4859)"/>
<path d="M252.666 78.204L254.613 79.2043C253.451 79.1774 252.3 79.4275 251.253 79.9341C250.207 80.4406 249.296 81.1891 248.596 82.1176C246.816 83.897 245.802 86.303 245.772 88.8207L249.085 87.2738C249.085 87.2738 248.833 91.3575 255.098 91.672C261.363 91.9866 268.003 92.2392 268.003 92.2392L265.891 89.2899C265.891 89.2899 269.781 90.8367 270.466 92.3011C271.08 94.6127 271.521 96.9671 271.785 99.3445C271.785 99.3445 273.331 95.3123 273.985 96.194C274.639 97.0757 273.305 100.731 272.486 101.531C271.667 102.33 271.806 104.738 271.728 104.934C271.651 105.13 275.623 101.84 275.798 100.711C275.974 99.5816 279.92 88.14 277.344 85.7579L278.89 85.6444C277.964 85.0144 276.907 84.6052 275.798 84.4482C275.798 84.4482 265.551 70.8926 252.666 78.204Z" fill="#333333"/>
<path d="M221.228 150.561C219.245 150.213 217.296 149.695 215.401 149.014C212.365 148.226 209.259 147.741 206.128 147.565C206.128 147.565 205.525 149.628 207.158 150.051C208.791 150.473 210.661 151.164 210.661 151.164L203.85 151.85L197.544 152.711C197.544 152.711 198.147 154.774 199.842 154.774C200.334 155.661 200.994 156.444 201.784 157.078C202.984 158.164 204.096 159.341 205.113 160.6C205.968 161.276 206.88 161.878 207.838 162.4C208.188 162.4 221.465 160.853 222.264 159.584L221.228 150.561Z" fill="url(#paint7_linear_643_4859)"/>
<path d="M276.613 169.381C276.613 169.381 278.673 179.647 281.729 182.23C281.729 182.23 261.697 197.874 260.765 209.192C259.461 224.836 308.751 200.576 308.751 200.576L305.34 191.934L283.97 201.417C283.97 201.417 296.973 192.62 303.434 183.818C308.514 176.837 305.752 170.412 302.919 165.421C302.888 165.256 290.621 175.404 276.613 169.381Z" fill="#68E1FD"/>
<path d="M276.613 169.381C276.613 169.381 278.673 179.647 281.729 182.23C281.729 182.23 261.697 197.874 260.765 209.192C259.461 224.836 308.751 200.576 308.751 200.576L305.34 191.934L283.97 201.417C283.97 201.417 296.973 192.62 303.434 183.818C308.514 176.837 305.752 170.412 302.919 165.421C302.888 165.256 290.621 175.404 276.613 169.381Z" fill="url(#paint8_linear_643_4859)"/>
<path d="M305.284 191.929L308.983 190.656L310.812 195.508L306.726 198.302L305.284 191.929Z" fill="url(#paint9_linear_643_4859)"/>
<path d="M250.894 208.31L250.543 206.16C251.937 206.385 253.361 206.329 254.732 205.993C256.102 205.657 257.392 205.05 258.524 204.206L258.74 207.728C257.577 208.454 256.256 208.886 254.889 208.988C253.522 209.089 252.151 208.857 250.894 208.31Z" fill="url(#paint10_linear_643_4859)"/>
<path d="M250.816 207.65L242.058 210.816C242.058 210.816 237.189 209.625 236.215 212.363C235.577 213.768 235.514 215.367 236.04 216.818C236.04 216.818 238.338 218.881 244.062 217.679C249.786 216.478 259.147 213.554 259.147 213.554L258.797 207.826C257.539 208.4 256.168 208.682 254.786 208.651C253.405 208.621 252.048 208.279 250.816 207.65ZM309.683 189.542C309.683 189.542 307.483 190.444 307.736 191.027C307.988 191.609 308.766 190.326 310.734 195.528L309.472 196.451L312.192 202.314C311.471 202.857 310.899 203.574 310.529 204.398C310.159 205.222 310.003 206.126 310.075 207.026C310.348 208.455 312.878 208.651 314.902 207.949C316.927 207.248 317.803 202.747 317.803 202.747C317.803 202.747 316.479 191.955 313.753 190.155C311.028 188.356 309.683 189.542 309.683 189.542Z" fill="#333333"/>
<path d="M243.634 178.575L202.284 191.615L183.325 175.857C175.674 183.674 166.488 177.811 167.75 173.233C169.012 168.654 177.487 170.32 177.487 170.32L165.998 160.662L187.493 155.248C187.627 156.006 188.523 159.682 193.742 159.976C199.579 160.311 200.903 155.557 196.055 153.232L209.682 149.695L243.634 178.575Z" fill="#68E1FD"/>
<path opacity="0.05" d="M232.588 173.454C232.306 173.531 232.039 173.657 231.8 173.826C231.58 174.038 231.383 174.273 231.213 174.527C230.45 175.476 229.209 175.852 228.08 176.301C226.805 176.805 225.595 177.459 224.474 178.25C224.305 178.345 224.173 178.494 224.098 178.673C223.928 179.224 224.783 179.498 225.072 179.998C225.157 180.186 225.185 180.394 225.154 180.599C225.123 180.803 225.034 180.993 224.897 181.148C224.619 181.451 224.289 181.702 223.923 181.89C221.96 183.089 220.246 184.654 218.874 186.5C225.107 183.255 231.605 180.546 238.297 178.404C238.818 178.275 239.308 178.04 239.734 177.714C239.946 177.548 240.102 177.321 240.18 177.063C240.259 176.806 240.256 176.531 240.172 176.275C240.059 176.022 240.456 175.955 240.25 175.759C239.245 174.862 237.555 173.362 236.21 172.263C236.231 172.274 233.645 173.104 232.588 173.454Z" fill="#000405"/>
<path d="M287.53 122.104C286.795 121.239 285.843 120.586 284.771 120.213C283.7 119.841 282.548 119.763 281.436 119.986C280.324 120.21 279.292 120.728 278.448 121.485C277.603 122.243 276.976 123.213 276.633 124.295C276.262 125.486 275.871 126.915 275.484 128.673C273.423 138.176 264.093 158.842 264.093 158.842L236.999 173.491L244.412 182.993L276.123 167.35C276.123 167.35 290.178 136.278 289.925 130.354C290.018 127.42 289.179 124.531 287.53 122.104Z" fill="#68E1FD"/>
<path opacity="0.61" d="M287.53 122.104C286.795 121.239 285.843 120.586 284.771 120.213C283.7 119.841 282.548 119.763 281.436 119.986C280.324 120.21 279.292 120.728 278.448 121.485C277.603 122.243 276.976 123.213 276.633 124.295C276.262 125.486 275.871 126.915 275.484 128.673C273.423 138.176 264.093 158.842 264.093 158.842L236.999 173.491L244.412 182.993L276.123 167.35C276.123 167.35 290.178 136.278 289.925 130.354C290.018 127.42 289.179 124.531 287.53 122.104Z" fill="url(#paint11_linear_643_4859)"/>
<path d="M239.312 174.821C237.354 175.348 235.354 175.707 233.336 175.893C230.248 176.454 227.223 177.317 224.304 178.471C224.304 178.471 224.613 180.585 226.251 180.292C227.89 179.998 229.889 179.864 229.889 179.864L224.052 183.365L218.678 186.804C218.678 186.804 220.079 188.428 221.615 187.701C222.438 188.302 223.371 188.734 224.361 188.975C225.896 189.453 227.393 190.048 228.838 190.754C229.899 191.009 230.979 191.173 232.068 191.243C232.382 191.104 243.887 184.066 243.964 182.602L239.312 174.821Z" fill="url(#paint12_linear_643_4859)"/>
<path d="M148.77 171.047L158.662 174.955V180.823C158.662 180.823 146.812 181.075 146.812 186.216C146.812 191.357 157.987 195.389 165.478 188.526L182.531 198.323L181.913 203.345L130.063 222.119L100.356 185.845V179.982L148.77 171.047Z" fill="#3F3D56"/>
<path d="M148.77 165.256L158.662 174.934C158.662 174.934 146.812 175.192 146.812 180.333C146.812 185.474 157.987 189.506 165.478 182.638L182.531 198.282L130.609 216.607L100.356 180.08L120.738 173.841C120.738 173.841 114.257 169.479 120.485 166.566C121.636 166.001 122.885 165.663 124.164 165.571C129.053 165.375 129.831 167.896 130.475 170.655V170.871L148.77 165.256Z" fill="#68E1FD"/>
<path opacity="0.05" d="M108.595 177.559C108.595 177.559 116.838 195.492 120.759 198.467C122.943 200.127 138.044 205.057 150.867 205.753C152.067 205.82 155.818 202.339 157.59 202.798C160.166 203.474 157.122 205.789 157.719 205.82C165.447 206.186 169.729 202.798 169.729 202.798L129.028 217.504L101.758 178.368L108.595 177.559Z" fill="#000405"/>
<path d="M148.306 209.661C149.687 207.853 151.267 206.207 153.015 204.753C154.446 203.898 155.984 203.241 157.59 202.798C157.59 202.798 158.312 204.99 157.075 205.402C155.839 205.815 155.128 207.98 155.128 207.98C155.128 207.98 164.123 209.703 165.21 209.171C166.297 208.64 166.4 210.326 164.278 210.641C162.155 210.955 162.217 214.003 160.774 214.25C159.332 214.498 157.194 215.875 155.071 216.385C152.611 216.598 150.134 216.483 147.704 216.045L148.306 209.661Z" fill="url(#paint13_linear_643_4859)"/>
<path d="M107.033 183.638C108.2 177.289 107.425 170.735 104.81 164.834C102.195 158.932 97.8611 153.958 92.3759 150.561C90.4228 149.222 88.1839 148.358 85.8379 148.04C76.4149 147.493 66.3684 215.637 66.3684 215.637C66.3684 215.637 70.9073 228.837 84.6478 230.106C97.3424 231.281 99.8154 223.635 99.8154 223.635L107.033 183.638Z" fill="#68E1FD"/>
<path opacity="0.61" d="M107.033 183.638C108.2 177.289 107.425 170.735 104.81 164.834C102.195 158.932 97.8611 153.958 92.3759 150.561C90.4228 149.222 88.1839 148.358 85.8379 148.04C76.4149 147.493 66.3684 215.637 66.3684 215.637C66.3684 215.637 70.9074 228.837 84.6478 230.106C97.3424 231.281 99.8154 223.635 99.8154 223.635L107.033 183.638Z" fill="url(#paint14_linear_643_4859)"/>
<path d="M85.838 148.029C85.838 148.029 87.2187 137.748 87.7855 131.06C88.3522 124.373 90.547 115.416 101.763 116.587C112.979 117.757 112.974 134.737 109.857 141.852C106.74 148.968 102.598 148.736 102.598 148.736C102.598 148.736 97.0128 147.503 97.2034 154.232L85.838 148.029Z" fill="url(#paint15_linear_643_4859)"/>
<path d="M90.0781 115.143C88.4438 116.711 87.2605 118.689 86.652 120.872C86.1469 122.642 85.802 124.454 85.6215 126.286L86.7704 125.038C86.7054 128.177 86.4646 131.31 86.0492 134.422C85.625 137.324 85.4526 140.256 85.534 143.188L87.6205 143.09L90.1966 146.317L93.0971 144.358L95.2764 143.208L97.2239 138.413C96.7496 138.065 96.4018 137.571 96.2335 137.007C96.0652 136.443 96.0855 135.84 96.2914 135.288C97.0127 133.334 98.7798 132.88 99.192 134.035C99.5073 135.474 99.6799 136.94 99.7072 138.413L102.798 129.647C102.798 129.647 104.746 126.925 106.441 128.807C107.456 129.941 108.741 130.801 110.176 131.308L109.146 128.374L111.948 129.096L111.732 125.755L113.819 127.219C113.819 127.219 114.751 121.805 112.979 119.397C111.207 116.989 104.215 107.419 90.0781 115.143Z" fill="#333333"/>
<path d="M148.595 207.924L125.648 205.438C122.546 204.842 119.71 203.288 117.537 200.994C115.364 198.7 113.965 195.782 113.535 192.651L105.05 166.741C104.537 165.115 103.58 163.665 102.286 162.556C100.992 161.447 99.4131 160.723 97.7289 160.466C96.4003 160.267 95.043 160.409 93.7841 160.878C92.5251 161.347 91.4057 162.128 90.5306 163.148C89.6555 164.168 89.0533 165.394 88.7805 166.71C88.5076 168.027 88.573 169.391 88.9705 170.675L97.7289 201.958C98.1422 205.392 99.721 208.581 102.201 210.99C104.682 213.399 107.914 214.883 111.356 215.194L147.333 219.891L148.595 207.924Z" fill="#68E1FD"/>
<path opacity="0.61" d="M148.595 207.924L125.648 205.438C122.546 204.842 119.71 203.288 117.537 200.994C115.364 198.7 113.965 195.782 113.535 192.651L105.05 166.741C104.537 165.115 103.579 163.665 102.285 162.556C100.992 161.447 99.413 160.723 97.7288 160.466C96.4002 160.267 95.0429 160.409 93.784 160.878C92.525 161.347 91.4056 162.128 90.5305 163.148C89.6554 164.168 89.0532 165.394 88.7804 166.71C88.5075 168.027 88.5729 169.391 88.9704 170.675L97.7288 201.958C98.1421 205.392 99.7209 208.581 102.201 210.99C104.682 213.399 107.913 214.883 111.356 215.194L147.333 219.891L148.595 207.924Z" fill="url(#paint16_linear_643_4859)"/>
<path d="M91.9483 245.951L85.194 247.497L87.8988 255.319L94.9674 253.685C94.9674 253.685 96.8376 247.637 91.9483 245.951Z" fill="url(#paint17_linear_643_4859)"/>
<path d="M82.448 246.363C82.448 246.363 86.8684 245.425 87.6 246.93C88.3316 248.436 85.9822 248.338 86.4511 250.473C86.8439 252.096 87.3308 253.696 87.9091 255.263L90.0884 254.773L90.5366 257.351C90.632 257.795 90.8784 258.191 91.2335 258.473C91.5887 258.756 92.0307 258.906 92.4841 258.898C97.5846 259.192 96.9045 263.822 95.1116 263.997L88.5119 264.487L85.0291 261.574C84.6116 261.284 84.2819 260.884 84.076 260.419C82.7828 257.918 78.8724 248.611 82.448 246.363Z" fill="#333333"/>
<path opacity="0.4" d="M189.806 86.9077C189.468 87.3961 189.175 87.9138 188.93 88.4546C187.451 91.6205 182.449 102.943 181.717 112.756C181.572 115.143 180.556 117.395 178.861 119.082C177.167 120.769 174.912 121.775 172.526 121.908L163.592 122.424L160.671 122.578C158.325 122.717 156.007 122.002 154.146 120.564C152.286 119.126 151.007 117.063 150.547 114.756C148.718 105.723 144.824 91.9195 137.255 85.8197C137.255 85.8197 103.886 55.2383 126.137 21.1352C127.633 18.8311 129.305 16.6468 131.14 14.6023C154.494 -11.2715 193.041 0.515611 202.305 24.5486C211.568 48.5817 193.49 81.7257 189.806 86.9077Z" fill="#297171"/>
<path d="M182.995 126.131C182.217 128.085 181.321 129.024 182.099 130.318C182.876 131.612 185.118 135.092 173.747 136.639C171.392 136.965 169.02 137.154 166.642 137.206H162.923L160.743 137.108C158.255 136.954 156.246 136.701 154.906 136.485C154.178 136.378 153.481 136.119 152.859 135.724C152.238 135.33 151.707 134.809 151.3 134.195C151.101 133.734 151.034 133.226 151.106 132.729C151.179 132.232 151.389 131.765 151.712 131.38C151.898 131.207 152.036 130.99 152.116 130.748C152.195 130.507 152.212 130.25 152.165 130C152.118 129.751 152.009 129.517 151.848 129.321C151.687 129.125 151.479 128.973 151.243 128.879C150.628 128.301 150.264 127.504 150.227 126.661C150.191 125.817 150.485 124.992 151.047 124.362C151.327 124.075 151.559 123.744 151.732 123.383C151.976 122.825 152.063 122.212 151.984 121.608C151.905 121.005 151.663 120.435 151.284 119.959L150.97 119.572C150.536 118.985 150.219 118.32 150.037 117.613C149.848 117.127 149.792 116.6 149.874 116.085C149.956 115.57 150.175 115.086 150.506 114.684C150.966 116.99 152.244 119.051 154.104 120.488C155.963 121.925 158.28 122.64 160.625 122.501L163.546 122.326C163.627 122.211 163.693 122.086 163.742 121.954C164.257 120.707 163.098 119.258 163.685 117.314L165.88 117.216C171.276 116.893 176.606 115.853 181.728 114.122C182.287 114.585 182.67 115.228 182.812 115.94C182.953 116.653 182.845 117.393 182.506 118.036C182.303 118.469 182.166 118.929 182.099 119.402C181.965 120.393 182.133 121.401 182.583 122.295C182.634 122.403 182.692 122.509 182.758 122.609C183.07 123.137 183.254 123.73 183.295 124.342C183.336 124.953 183.233 125.566 182.995 126.131Z" fill="#68E1FD"/>
<path d="M150.527 114.674C160.718 112.03 171.39 111.836 181.671 114.107C181.671 114.107 164.793 121.026 150.527 114.674Z" fill="#333333"/>
<path d="M165.473 137.021C164.625 137.188 163.76 137.247 162.897 137.196L160.712 137.098C158.224 136.943 156.22 136.691 154.875 136.474C154.147 136.368 153.45 136.109 152.828 135.714C152.207 135.32 151.675 134.799 151.269 134.185C151.068 133.724 151 133.217 151.072 132.719C151.144 132.222 151.353 131.755 151.676 131.37C151.861 131.196 152 130.978 152.079 130.737C152.158 130.495 152.175 130.238 152.129 129.988C152.082 129.738 151.973 129.505 151.812 129.309C151.651 129.114 151.443 128.962 151.207 128.869C150.592 128.29 150.227 127.494 150.192 126.649C150.156 125.805 150.452 124.98 151.016 124.352C151.59 123.777 151.932 123.009 151.974 122.197C152.017 121.385 151.759 120.586 151.248 119.954C150.676 119.278 150.263 118.481 150.043 117.623C149.854 117.138 149.797 116.611 149.878 116.096C149.96 115.581 150.177 115.098 150.506 114.694C155.39 116.566 160.604 117.417 165.828 117.195L166.081 117.314C166.081 117.314 164.133 118.056 164.638 119.758C165.143 121.459 165.885 124.527 164.211 126.523C162.536 128.518 165.756 129.065 165.148 131.313V131.529C164.902 132.2 164.713 132.89 164.582 133.592C164.231 135.36 164.396 136.866 165.473 137.021Z" fill="url(#paint18_linear_643_4859)"/>
<path opacity="0.49" d="M165.864 117.175C160.635 117.401 155.414 116.55 150.527 114.674C148.713 105.697 144.818 91.8937 137.25 85.7991C137.25 85.7991 103.88 55.2177 126.132 21.1146C127.628 18.8104 129.3 16.6262 131.135 14.5817L134.133 14.3085C134.133 14.3085 154.092 3.78465 162.557 15.3036C171.022 26.8225 152.546 39.8419 151.578 60.8792C150.609 81.9165 174.664 85.8094 165.864 117.175Z" fill="#E7E7E7"/>
<path d="M180.367 131.545C178.925 132.483 173.747 134.247 164.52 133.607C160.195 133.263 155.912 132.503 151.733 131.339C151.918 131.166 152.057 130.948 152.136 130.707C152.216 130.466 152.233 130.209 152.186 129.959C152.139 129.71 152.03 129.476 151.869 129.28C151.708 129.084 151.499 128.932 151.264 128.838C155.744 130.376 160.438 131.201 165.174 131.282C170.491 131.431 175.799 130.772 180.919 129.328C180.919 129.328 182.526 130.137 180.367 131.545Z" fill="url(#paint19_linear_643_4859)"/>
<path d="M182.567 122.315C180.836 123.764 174.293 126.44 164.834 125.522C160.392 125.361 155.989 124.632 151.732 123.352C151.976 122.795 152.063 122.182 151.984 121.58C151.905 120.978 151.663 120.408 151.284 119.933L150.97 119.541C151.593 119.778 152.644 120.108 154.061 120.48C157.254 121.288 160.513 121.806 163.799 122.027H165.313C171.034 122.257 176.744 121.353 182.114 119.366C181.957 120.372 182.116 121.403 182.567 122.315Z" fill="url(#paint20_linear_643_4859)"/>
<path d="M117.781 169.541L117.899 174.697L120.759 173.815C120.759 173.815 117.781 171.748 117.781 169.541Z" fill="#3F3D56"/>
<path d="M180.455 65.0351L179.832 64.6123C180.771 61.7689 181.103 58.7597 180.805 55.7797C180.064 49.4686 175.612 45.6169 168.286 44.9517C157.055 43.8844 152.608 49.6851 150.96 53.2326C146.199 63.1479 150.506 79.2043 157.369 86.4076C165.828 95.2453 162.562 111.91 161.367 116.829C161.328 116.95 161.302 117.074 161.29 117.2V117.53L163.015 118.118L163.139 117.633C164.162 113.696 164.756 109.659 164.911 105.594C165.215 96.8282 163.119 89.7385 158.827 85.0979C152.49 78.4515 148.373 63.1067 152.747 54.0266C155.401 48.5868 160.754 46.0809 168.24 46.777C176.385 47.5505 178.636 52.2271 179.09 55.9963C179.319 58.5798 179.03 61.1832 178.24 63.6533C176.421 62.7348 174.333 62.5006 172.356 62.9933C168.497 64.0554 166.06 68.0566 164.695 71.2122C164.354 71.9967 164.248 72.8639 164.392 73.7074C164.536 74.5508 164.922 75.3341 165.504 75.9611C166.072 76.574 166.805 77.0103 167.614 77.2178C168.424 77.4254 169.276 77.3954 170.069 77.1315C173.546 75.8992 177.173 71.6299 179.213 66.4221L179.414 66.5613C185.082 70.5522 181.037 76.7036 176.385 83.8346C173.072 88.831 168.961 95.0493 168.518 101.175C168.003 106.661 168.24 110.997 168.611 116.52L168.636 116.958H170.491L170.465 116.442C170.105 110.93 169.888 106.646 170.373 101.314C170.769 95.7042 174.556 89.9344 177.895 84.8143L178.044 84.5823C182.892 77.1419 187.467 70.0779 180.455 65.0351ZM169.409 75.3475C168.961 75.5012 168.478 75.5191 168.019 75.399C167.561 75.2788 167.148 75.0259 166.833 74.6721C166.494 74.3107 166.269 73.857 166.186 73.368C166.104 72.8791 166.168 72.3766 166.369 71.9238C167.348 69.6499 169.492 65.6848 172.825 64.7567C173.302 64.6263 173.794 64.5604 174.288 64.5607C175.426 64.5994 176.541 64.8881 177.554 65.4064C175.612 70.3202 172.31 74.3781 169.409 75.3578V75.3475Z" fill="white"/>
</g>
<defs>
<linearGradient id="paint0_linear_643_4859" x1="77.4866" y1="216.643" x2="116.451" y2="216.643" gradientUnits="userSpaceOnUse">
<stop stop-color="#68E1FD" stop-opacity="0"/>
<stop offset="0.02" stop-color="#66DAF6" stop-opacity="0.04"/>
<stop offset="0.18" stop-color="#58A1BC" stop-opacity="0.39"/>
<stop offset="0.35" stop-color="#4D758F" stop-opacity="0.66"/>
<stop offset="0.53" stop-color="#45566F" stop-opacity="0.85"/>
<stop offset="0.73" stop-color="#40435C" stop-opacity="0.96"/>
<stop offset="0.99" stop-color="#3F3D56"/>
</linearGradient>
<linearGradient id="paint1_linear_643_4859" x1="131.743" y1="192.3" x2="85.8115" y2="244.749" gradientUnits="userSpaceOnUse">
<stop offset="0.11" stop-color="#68E1FD" stop-opacity="0"/>
<stop offset="0.13" stop-color="#66DAF6" stop-opacity="0.04"/>
<stop offset="0.27" stop-color="#58A1BC" stop-opacity="0.39"/>
<stop offset="0.42" stop-color="#4D758F" stop-opacity="0.66"/>
<stop offset="0.58" stop-color="#45566F" stop-opacity="0.85"/>
<stop offset="0.76" stop-color="#40435C" stop-opacity="0.96"/>
<stop offset="0.99" stop-color="#3F3D56"/>
</linearGradient>
<linearGradient id="paint2_linear_643_4859" x1="214.232" y1="168.685" x2="288.226" y2="185.731" gradientUnits="userSpaceOnUse">
<stop stop-color="#68E1FD" stop-opacity="0"/>
<stop offset="0.02" stop-color="#66DAF6" stop-opacity="0.04"/>
<stop offset="0.18" stop-color="#58A1BC" stop-opacity="0.39"/>
<stop offset="0.35" stop-color="#4D758F" stop-opacity="0.66"/>
<stop offset="0.53" stop-color="#45566F" stop-opacity="0.85"/>
<stop offset="0.73" stop-color="#40435C" stop-opacity="0.96"/>
<stop offset="0.99" stop-color="#3F3D56"/>
</linearGradient>
<linearGradient id="paint3_linear_643_4859" x1="274.134" y1="159.919" x2="243.029" y2="141.828" gradientUnits="userSpaceOnUse">
<stop offset="0.36" stop-color="#00272E"/>
<stop offset="1" stop-color="#69B9EB" stop-opacity="0"/>
</linearGradient>
<linearGradient id="paint4_linear_643_4859" x1="261.914" y1="113.132" x2="273.125" y2="113.132" gradientUnits="userSpaceOnUse">
<stop stop-color="#ECC4D7"/>
<stop offset="0.42" stop-color="#EFD4D1"/>
<stop offset="1" stop-color="#F2EAC9"/>
</linearGradient>
<linearGradient id="paint5_linear_643_4859" x1="269.276" y1="104.996" x2="249.484" y2="137.899" gradientUnits="userSpaceOnUse">
<stop stop-color="#ECC4D7"/>
<stop offset="0.42" stop-color="#EFD4D1"/>
<stop offset="1" stop-color="#F2EAC9"/>
</linearGradient>
<linearGradient id="paint6_linear_643_4859" x1="251.821" y1="97.5604" x2="275.567" y2="97.5604" gradientUnits="userSpaceOnUse">
<stop stop-color="#ECC4D7"/>
<stop offset="0.42" stop-color="#EFD4D1"/>
<stop offset="1" stop-color="#F2EAC9"/>
</linearGradient>
<linearGradient id="paint7_linear_643_4859" x1="197.519" y1="154.97" x2="222.223" y2="154.97" gradientUnits="userSpaceOnUse">
<stop stop-color="#ECC4D7"/>
<stop offset="0.42" stop-color="#EFD4D1"/>
<stop offset="1" stop-color="#F2EAC9"/>
</linearGradient>
<linearGradient id="paint8_linear_643_4859" x1="261.435" y1="179.219" x2="308.672" y2="201.768" gradientUnits="userSpaceOnUse">
<stop stop-color="#68E1FD" stop-opacity="0"/>
<stop offset="0.02" stop-color="#66DAF6" stop-opacity="0.04"/>
<stop offset="0.18" stop-color="#58A1BC" stop-opacity="0.39"/>
<stop offset="0.35" stop-color="#4D758F" stop-opacity="0.66"/>
<stop offset="0.53" stop-color="#45566F" stop-opacity="0.85"/>
<stop offset="0.73" stop-color="#40435C" stop-opacity="0.96"/>
<stop offset="0.99" stop-color="#3F3D56"/>
</linearGradient>
<linearGradient id="paint9_linear_643_4859" x1="305.284" y1="194.481" x2="310.812" y2="194.481" gradientUnits="userSpaceOnUse">
<stop stop-color="#ECC4D7"/>
<stop offset="0.42" stop-color="#EFD4D1"/>
<stop offset="1" stop-color="#F2EAC9"/>
</linearGradient>
<linearGradient id="paint10_linear_643_4859" x1="250.543" y1="206.629" x2="258.74" y2="206.629" gradientUnits="userSpaceOnUse">
<stop stop-color="#ECC4D7"/>
<stop offset="0.42" stop-color="#EFD4D1"/>
<stop offset="1" stop-color="#F2EAC9"/>
</linearGradient>
<linearGradient id="paint11_linear_643_4859" x1="311.069" y1="175.636" x2="253.986" y2="146.133" gradientUnits="userSpaceOnUse">
<stop offset="0.36" stop-color="#00272E"/>
<stop offset="1" stop-color="#69B9EB" stop-opacity="0"/>
</linearGradient>
<linearGradient id="paint12_linear_643_4859" x1="218.678" y1="183.04" x2="243.964" y2="183.04" gradientUnits="userSpaceOnUse">
<stop stop-color="#ECC4D7"/>
<stop offset="0.42" stop-color="#EFD4D1"/>
<stop offset="1" stop-color="#F2EAC9"/>
</linearGradient>
<linearGradient id="paint13_linear_643_4859" x1="147.704" y1="209.656" x2="165.962" y2="209.656" gradientUnits="userSpaceOnUse">
<stop stop-color="#ECC4D7"/>
<stop offset="0.42" stop-color="#EFD4D1"/>
<stop offset="1" stop-color="#F2EAC9"/>
</linearGradient>
<linearGradient id="paint14_linear_643_4859" x1="52.8134" y1="185.159" x2="95.3187" y2="190.271" gradientUnits="userSpaceOnUse">
<stop offset="0.36" stop-color="#00272E"/>
<stop offset="1" stop-color="#69B9EB" stop-opacity="0"/>
</linearGradient>
<linearGradient id="paint15_linear_643_4859" x1="85.838" y1="135.345" x2="111.639" y2="135.345" gradientUnits="userSpaceOnUse">
<stop stop-color="#ECC4D7"/>
<stop offset="0.42" stop-color="#EFD4D1"/>
<stop offset="1" stop-color="#F2EAC9"/>
</linearGradient>
<linearGradient id="paint16_linear_643_4859" x1="71.6183" y1="224.491" x2="124.908" y2="187.247" gradientUnits="userSpaceOnUse">
<stop offset="0.36" stop-color="#00272E"/>
<stop offset="1" stop-color="#69B9EB" stop-opacity="0"/>
</linearGradient>
<linearGradient id="paint17_linear_643_4859" x1="85.194" y1="250.648" x2="95.3177" y2="250.648" gradientUnits="userSpaceOnUse">
<stop stop-color="#ECC4D7"/>
<stop offset="0.42" stop-color="#EFD4D1"/>
<stop offset="1" stop-color="#F2EAC9"/>
</linearGradient>
<linearGradient id="paint18_linear_643_4859" x1="168.595" y1="126.378" x2="137.456" y2="125.246" gradientUnits="userSpaceOnUse">
<stop stop-color="#68E1FD" stop-opacity="0"/>
<stop offset="0.02" stop-color="#66DAF6" stop-opacity="0.04"/>
<stop offset="0.18" stop-color="#58A1BC" stop-opacity="0.39"/>
<stop offset="0.35" stop-color="#4D758F" stop-opacity="0.66"/>
<stop offset="0.53" stop-color="#45566F" stop-opacity="0.85"/>
<stop offset="0.73" stop-color="#40435C" stop-opacity="0.96"/>
<stop offset="0.99" stop-color="#3F3D56"/>
</linearGradient>
<linearGradient id="paint19_linear_643_4859" x1="165.221" y1="112.225" x2="168.724" y2="163.693" gradientUnits="userSpaceOnUse">
<stop stop-color="#68E1FD" stop-opacity="0"/>
<stop offset="0.02" stop-color="#66DAF6" stop-opacity="0.04"/>
<stop offset="0.18" stop-color="#58A1BC" stop-opacity="0.39"/>
<stop offset="0.35" stop-color="#4D758F" stop-opacity="0.66"/>
<stop offset="0.53" stop-color="#45566F" stop-opacity="0.85"/>
<stop offset="0.73" stop-color="#40435C" stop-opacity="0.96"/>
<stop offset="0.99" stop-color="#3F3D56"/>
</linearGradient>
<linearGradient id="paint20_linear_643_4859" x1="166.174" y1="112.163" x2="169.677" y2="163.626" gradientUnits="userSpaceOnUse">
<stop stop-color="#68E1FD" stop-opacity="0"/>
<stop offset="0.02" stop-color="#66DAF6" stop-opacity="0.04"/>
<stop offset="0.18" stop-color="#58A1BC" stop-opacity="0.39"/>
<stop offset="0.35" stop-color="#4D758F" stop-opacity="0.66"/>
<stop offset="0.53" stop-color="#45566F" stop-opacity="0.85"/>
<stop offset="0.73" stop-color="#40435C" stop-opacity="0.96"/>
<stop offset="0.99" stop-color="#3F3D56"/>
</linearGradient>
<clipPath id="clip0_643_4859">
<rect width="336" height="307" fill="white"/>
</clipPath>
</defs>
</svg>
